<svg xmlns="http://www.w3.org/2000/svg" version="1.1" xmlns:xlink="http://www.w3.org/1999/xlink" xmlns:svgjs="http://svgjs.com/svgjs" width="1000" height="1000"><rect width="1000" height="1000" rx="200" ry="200" fill="#555555"></rect><g transform="matrix(1.5625,0,0,1.5625,99.99999570846558,99.99999141693115)"><svg xmlns="http://www.w3.org/2000/svg" version="1.1" xmlns:xlink="http://www.w3.org/1999/xlink" xmlns:svgjs="http://svgjs.com/svgjs" width="512" height="512"><svg xmlns="http://www.w3.org/2000/svg" xmlns:xlink="http://www.w3.org/1999/xlink" width="512" zoomAndPan="magnify" viewBox="0 0 384 383.999986" height="512" preserveAspectRatio="xMidYMid meet" version="1.0"><defs><g></g></defs><rect x="-38.4" width="460.8" fill="#ffffff" y="-38.399999" height="460.799983" fill-opacity="1"></rect><rect x="-38.4" width="460.8" fill="#2e3440" y="-38.399999" height="460.799983" fill-opacity="1"></rect><g fill="#e5e9f0" fill-opacity="1"><g transform="translate(38.400004, 263.221001)"><g><path d="M 109.953125 -119.296875 C 109.953125 -111.285156 108.207031 -103.421875 104.71875 -95.703125 C 101.226562 -87.984375 96.585938 -81.046875 90.796875 -74.890625 C 85.015625 -68.734375 78.414062 -63.6875 71 -59.75 C 63.582031 -55.820312 55.941406 -53.632812 48.078125 -53.1875 C 47.921875 -50.519531 47.804688 -47.144531 47.734375 -43.0625 C 47.660156 -38.988281 47.398438 -34.722656 46.953125 -30.265625 C 46.515625 -25.816406 45.882812 -21.363281 45.0625 -16.90625 C 44.25 -12.457031 43.0625 -8.453125 41.5 -4.890625 C 39.945312 -1.335938 37.945312 1.550781 35.5 3.78125 C 33.050781 6.007812 30.046875 7.125 26.484375 7.125 C 22.328125 7.125 19.023438 5.75 16.578125 3 C 14.128906 0.257812 12.273438 -3.035156 11.015625 -6.890625 C 9.753906 -10.753906 8.898438 -14.800781 8.453125 -19.03125 C 8.015625 -23.257812 7.71875 -26.859375 7.5625 -29.828125 C 7.269531 -34.128906 7.085938 -38.351562 7.015625 -42.5 C 6.941406 -46.65625 6.90625 -50.890625 6.90625 -55.203125 C 6.90625 -57.128906 6.90625 -60.722656 6.90625 -65.984375 C 6.90625 -71.253906 6.941406 -77.265625 7.015625 -84.015625 C 7.085938 -90.765625 7.195312 -97.8125 7.34375 -105.15625 C 7.488281 -112.5 7.707031 -119.320312 8 -125.625 C 8.300781 -131.9375 8.632812 -137.316406 9 -141.765625 C 9.375 -146.222656 9.859375 -148.820312 10.453125 -149.5625 C 10.609375 -149.707031 11.054688 -150.039062 11.796875 -150.5625 C 12.535156 -151.082031 13.347656 -151.601562 14.234375 -152.125 C 15.128906 -152.644531 15.945312 -153.125 16.6875 -153.5625 C 17.4375 -154.007812 17.957031 -154.304688 18.25 -154.453125 C 25.070312 -158.316406 32.5625 -161.65625 40.71875 -164.46875 C 48.882812 -167.289062 56.972656 -168.703125 64.984375 -168.703125 C 71.816406 -168.703125 78.015625 -167.328125 83.578125 -164.578125 C 89.140625 -161.835938 93.882812 -158.203125 97.8125 -153.671875 C 101.75 -149.148438 104.753906 -143.882812 106.828125 -137.875 C 108.910156 -131.863281 109.953125 -125.671875 109.953125 -119.296875 Z M 71.4375 -114.171875 C 71.4375 -117.140625 70.734375 -119.734375 69.328125 -121.953125 C 67.921875 -124.179688 65.582031 -125.296875 62.3125 -125.296875 C 59.5 -125.296875 56.679688 -124.738281 53.859375 -123.625 C 51.035156 -122.519531 48.441406 -121.375 46.078125 -120.1875 C 46.515625 -114.988281 46.914062 -109.941406 47.28125 -105.046875 C 47.65625 -100.148438 47.695312 -95.109375 47.40625 -89.921875 C 49.78125 -91.109375 52.375 -92.476562 55.1875 -94.03125 C 58.007812 -95.59375 60.609375 -97.335938 62.984375 -99.265625 C 65.359375 -101.191406 67.359375 -103.378906 68.984375 -105.828125 C 70.617188 -108.273438 71.4375 -111.054688 71.4375 -114.171875 Z M 71.4375 -114.171875 "></path></g></g><g transform="translate(147.012057, 263.221001)"><g><path d="M 38.953125 -10.6875 C 38.953125 -8.757812 38.503906 -7.015625 37.609375 -5.453125 C 36.722656 -3.890625 35.570312 -2.585938 34.15625 -1.546875 C 32.75 -0.515625 31.191406 0.296875 29.484375 0.890625 C 27.785156 1.484375 26.046875 1.78125 24.265625 1.78125 C 22.035156 1.78125 19.617188 1.367188 17.015625 0.546875 C 14.421875 -0.265625 12.046875 -1.410156 9.890625 -2.890625 C 7.742188 -4.378906 5.925781 -6.125 4.4375 -8.125 C 2.957031 -10.125 2.21875 -12.382812 2.21875 -14.90625 C 2.21875 -18.914062 3.925781 -21.921875 7.34375 -23.921875 C 10.757812 -25.929688 14.25 -26.9375 17.8125 -26.9375 C 20.03125 -26.9375 22.363281 -26.5625 24.8125 -25.8125 C 27.257812 -25.070312 29.554688 -23.992188 31.703125 -22.578125 C 33.859375 -21.171875 35.601562 -19.46875 36.9375 -17.46875 C 38.28125 -15.46875 38.953125 -13.207031 38.953125 -10.6875 Z M 38.953125 -10.6875 "></path></g></g><g transform="translate(188.186707, 263.221001)"><g><path d="M 115.28125 -117.0625 C 115.28125 -106.832031 112.90625 -97.632812 108.15625 -89.46875 C 103.414062 -81.3125 97.113281 -74.113281 89.25 -67.875 C 91.625 -64.320312 94.070312 -60.171875 96.59375 -55.421875 C 99.113281 -50.671875 101.375 -45.660156 103.375 -40.390625 C 105.382812 -35.128906 107.019531 -29.863281 108.28125 -24.59375 C 109.539062 -19.320312 110.171875 -14.460938 110.171875 -10.015625 C 110.171875 -5.265625 109.019531 -1 106.71875 2.78125 C 104.414062 6.5625 100.519531 8.453125 95.03125 8.453125 C 90.4375 8.453125 86.46875 6.226562 83.125 1.78125 C 79.789062 -2.664062 76.820312 -7.96875 74.21875 -14.125 C 71.625 -20.289062 69.25 -26.5625 67.09375 -32.9375 C 64.945312 -39.320312 62.910156 -44.441406 60.984375 -48.296875 C 58.316406 -47.410156 55.71875 -46.410156 53.1875 -45.296875 C 50.664062 -44.179688 48.070312 -43.101562 45.40625 -42.0625 C 45.257812 -38.800781 45 -34.3125 44.625 -28.59375 C 44.25 -22.882812 43.429688 -17.207031 42.171875 -11.5625 C 40.910156 -5.925781 39.019531 -1.035156 36.5 3.109375 C 33.976562 7.265625 30.492188 9.34375 26.046875 9.34375 C 21.148438 9.34375 17.363281 7.335938 14.6875 3.328125 C 12.019531 -0.671875 10.128906 -5.414062 9.015625 -10.90625 C 7.898438 -16.394531 7.269531 -21.992188 7.125 -27.703125 C 6.976562 -33.421875 6.90625 -37.910156 6.90625 -41.171875 C 6.90625 -48.148438 7.050781 -55.015625 7.34375 -61.765625 C 7.644531 -68.515625 7.796875 -75.375 7.796875 -82.34375 C 7.796875 -88.726562 7.679688 -95.109375 7.453125 -101.484375 C 7.234375 -107.867188 7.125 -114.328125 7.125 -120.859375 C 7.125 -122.335938 7.125 -124.226562 7.125 -126.53125 C 7.125 -128.832031 7.234375 -131.207031 7.453125 -133.65625 C 7.679688 -136.101562 7.941406 -138.4375 8.234375 -140.65625 C 8.535156 -142.882812 9.054688 -144.664062 9.796875 -146 C 11.273438 -149.113281 14.648438 -152.082031 19.921875 -154.90625 C 25.191406 -157.726562 30.976562 -160.210938 37.28125 -162.359375 C 43.582031 -164.515625 49.738281 -166.222656 55.75 -167.484375 C 61.757812 -168.742188 66.25 -169.375 69.21875 -169.375 C 76.78125 -169.375 83.453125 -167.960938 89.234375 -165.140625 C 95.023438 -162.328125 99.847656 -158.507812 103.703125 -153.6875 C 107.566406 -148.863281 110.460938 -143.296875 112.390625 -136.984375 C 114.316406 -130.679688 115.28125 -124.039062 115.28125 -117.0625 Z M 74.109375 -113.953125 C 74.109375 -117.804688 73.21875 -120.734375 71.4375 -122.734375 C 69.65625 -124.742188 66.765625 -125.75 62.765625 -125.75 C 59.796875 -125.75 56.789062 -125.226562 53.75 -124.1875 C 50.707031 -123.15625 47.925781 -121.96875 45.40625 -120.625 C 46 -108.90625 46.222656 -97.257812 46.078125 -85.6875 C 49.191406 -86.726562 52.378906 -88.0625 55.640625 -89.6875 C 58.898438 -91.320312 61.898438 -93.328125 64.640625 -95.703125 C 67.390625 -98.078125 69.65625 -100.75 71.4375 -103.71875 C 73.21875 -106.6875 74.109375 -110.097656 74.109375 -113.953125 Z M 74.109375 -113.953125 "></path></g></g><g transform="translate(304.588559, 263.221001)"><g><path d="M 38.953125 -10.6875 C 38.953125 -8.757812 38.503906 -7.015625 37.609375 -5.453125 C 36.722656 -3.890625 35.570312 -2.585938 34.15625 -1.546875 C 32.75 -0.515625 31.191406 0.296875 29.484375 0.890625 C 27.785156 1.484375 26.046875 1.78125 24.265625 1.78125 C 22.035156 1.78125 19.617188 1.367188 17.015625 0.546875 C 14.421875 -0.265625 12.046875 -1.410156 9.890625 -2.890625 C 7.742188 -4.378906 5.925781 -6.125 4.4375 -8.125 C 2.957031 -10.125 2.21875 -12.382812 2.21875 -14.90625 C 2.21875 -18.914062 3.925781 -21.921875 7.34375 -23.921875 C 10.757812 -25.929688 14.25 -26.9375 17.8125 -26.9375 C 20.03125 -26.9375 22.363281 -26.5625 24.8125 -25.8125 C 27.257812 -25.070312 29.554688 -23.992188 31.703125 -22.578125 C 33.859375 -21.171875 35.601562 -19.46875 36.9375 -17.46875 C 38.28125 -15.46875 38.953125 -13.207031 38.953125 -10.6875 Z M 38.953125 -10.6875 "></path></g></g></g></svg></svg></g></svg>